<svg width="48" height="48" viewBox="0 0 48 48" fill="none" xmlns="http://www.w3.org/2000/svg">
<g clip-path="url(#clip0_1_13)">
<path d="M46.967 25.747C50.602 12.625 44.314 0 33.295 0C27.198 0 24.595 3.504 17.898 11.663C11.2 19.822 1.65 8.478 0 25.747C1.386 41.66 18.652 56.064 26.668 42.774C33.966 30.674 43.332 38.868 46.967 25.747Z" fill="#FFDD76"/>
<path d="M32.7545 12C32.4305 12 32.1825 12.25 32.1825 12.576C32.1825 12.902 32.4305 13.152 32.7545 13.152H33.2875L26.8655 19.642L21.1675 13.901C21.1161 13.8465 21.0541 13.8031 20.9853 13.7735C20.9165 13.7438 20.8424 13.7285 20.7675 13.7285C20.6926 13.7285 20.6185 13.7438 20.5497 13.7735C20.4809 13.8031 20.4189 13.8465 20.3675 13.901L14.0785 20.16C14.0244 20.2122 13.9813 20.2748 13.9519 20.3441C13.9225 20.4133 13.9074 20.4878 13.9074 20.563C13.9074 20.6382 13.9225 20.7127 13.9519 20.7819C13.9813 20.8512 14.0244 20.9138 14.0785 20.966C14.1296 21.021 14.1915 21.0649 14.2603 21.0949C14.3292 21.1249 14.4034 21.1404 14.4785 21.1404C14.5536 21.1404 14.6279 21.1249 14.6967 21.0949C14.7655 21.0649 14.8274 21.021 14.8785 20.966L20.7675 15.11L26.4655 20.851C26.6945 21.081 27.0555 21.081 27.2655 20.851L34.1075 13.958V14.496C34.1075 14.822 34.3545 15.072 34.6785 15.072C35.0025 15.072 35.2505 14.822 35.2505 14.496V12.576C35.2508 12.4604 35.2164 12.3474 35.1519 12.2516C35.0874 12.1557 34.9957 12.0813 34.8885 12.038C34.821 12.0143 34.7501 12.0015 34.6785 12H34.6595H32.7545ZM31.0585 21.408C30.9828 21.4069 30.9076 21.4211 30.8374 21.4497C30.7673 21.4783 30.7036 21.5208 30.6502 21.5745C30.5968 21.6283 30.5548 21.6923 30.5267 21.7626C30.4986 21.833 30.4849 21.9083 30.4865 21.984V35.424C30.4865 35.75 30.7345 36 31.0585 36H34.4885C34.8125 36 35.0595 35.75 35.0595 35.424V21.984C35.0611 21.9083 35.0475 21.8331 35.0195 21.7628C34.9914 21.6926 34.9495 21.6286 34.8962 21.5749C34.8429 21.5211 34.7794 21.4787 34.7093 21.45C34.6393 21.4213 34.5642 21.407 34.4885 21.408H31.0585ZM12.5545 21.908C12.4783 21.9078 12.4029 21.9233 12.333 21.9537C12.2631 21.984 12.2002 22.0284 12.1483 22.0842C12.0963 22.14 12.0565 22.2059 12.0312 22.2778C12.006 22.3497 11.9959 22.426 12.0015 22.502V22.579C12.0015 22.886 12.2685 23.136 12.5915 23.136C12.9145 23.136 13.1645 22.867 13.1445 22.541V22.464C13.1445 22.138 12.8785 21.907 12.5545 21.907V21.908ZM18.8615 23.328C18.7858 23.327 18.7108 23.3413 18.6407 23.37C18.5707 23.3987 18.5071 23.4411 18.4539 23.4949C18.4006 23.5486 18.3587 23.6126 18.3306 23.6828C18.3025 23.7531 18.2889 23.8283 18.2905 23.904V35.424C18.2905 35.75 18.5375 36 18.8615 36H22.2915C22.6155 36 22.8635 35.75 22.8635 35.424V23.904C22.8651 23.8283 22.8515 23.7531 22.8235 23.6828C22.7954 23.6126 22.7535 23.5486 22.7002 23.4949C22.6469 23.4411 22.5834 23.3987 22.5133 23.37C22.4433 23.3413 22.3682 23.327 22.2925 23.328H18.8615ZM19.4335 24.48H21.7205V34.848H19.4335V24.48ZM24.9595 27.168C24.8838 27.167 24.8088 27.1813 24.7387 27.21C24.6687 27.2387 24.6051 27.2811 24.5519 27.3349C24.4986 27.3886 24.4567 27.4526 24.4286 27.5228C24.4005 27.5931 24.3869 27.6683 24.3885 27.744V35.424C24.3885 35.75 24.6355 36 24.9595 36H28.3895C28.7145 36 28.9615 35.75 28.9615 35.424V27.744C28.9631 27.6683 28.9495 27.5931 28.9215 27.5228C28.8934 27.4526 28.8515 27.3886 28.7982 27.3349C28.7449 27.2811 28.6814 27.2387 28.6113 27.21C28.5413 27.1813 28.4662 27.167 28.3905 27.168H24.9595ZM25.5315 28.32H27.8185V34.848H25.5315V28.32ZM12.7635 29.088C12.6878 29.087 12.6128 29.1013 12.5427 29.13C12.4727 29.1587 12.4091 29.2011 12.3559 29.2549C12.3026 29.3086 12.2607 29.3726 12.2326 29.4428C12.2045 29.5131 12.1909 29.5883 12.1925 29.664V35.424C12.1925 35.75 12.4395 36 12.7635 36H16.1935C16.5175 36 16.7655 35.75 16.7655 35.424V29.664C16.7671 29.5883 16.7535 29.513 16.7254 29.4426C16.6972 29.3722 16.6552 29.3083 16.6018 29.2545C16.5485 29.2008 16.4848 29.1583 16.4146 29.1297C16.3445 29.1011 16.2693 29.0869 16.1935 29.088H12.7635ZM13.3355 30.24H15.6225V34.848H13.3355V30.24Z" fill="#63522B"/>
</g>
<defs>
<clipPath id="clip0_1_13">
<rect width="48" height="48" fill="white"/>
</clipPath>
</defs>
</svg>
