<svg width="175" height="33" viewBox="0 0 175 33" fill="none" xmlns="http://www.w3.org/2000/svg">
<path d="M11 1.551L1.03399 16.5L11 31.449L20.966 16.5L11 1.551ZM11 0L22 16.5L11 33L-5.72205e-06 16.5L11 0Z" fill="#FFC22D"/>
<path d="M8.008 12.6387L7.02533 13.9587L6.61466 18.1387V13.5407L8.008 12.6387Z" fill="#FFC22D"/>
<path d="M10.5893 8.61328L9.31333 9.95528L8.88066 11.9903V10.0213L9.86333 9.18528V9.22928L10.5893 8.61328Z" fill="#FFC22D"/>
<path d="M4.80332 18.1396H6.61465L4.95732 18.4476L4.25332 19.8006L4.80332 18.1396Z" fill="#FFC22D"/>
<path d="M9.60667 11.5175V10.3075L11 9.22949V10.5825L9.60667 11.5175Z" fill="#FFC22D"/>
<path d="M10.1713 19.6902H9.73866V18.3262L10.1713 18.2822V19.6902Z" fill="#FFC22D"/>
<path d="M10.1713 16.7315L9.73866 16.8305V15.4665L10.1713 15.3125V16.7315Z" fill="#FFC22D"/>
<path d="M10.1713 13.959L9.73866 14.157V12.782L10.1713 12.54V13.959Z" fill="#FFC22D"/>
<path d="M8.90999 19.6901H8.55799V18.4581L8.90999 18.4141V19.6901Z" fill="#FFC22D"/>
<path d="M8.90999 17.028L8.55799 17.105V15.873L8.90999 15.752V17.028Z" fill="#FFC22D"/>
<path d="M8.90999 14.5309L8.55799 14.6849V13.4529L8.90999 13.2549V14.5309Z" fill="#FFC22D"/>
<path d="M7.82466 19.6902H7.53133V18.5682L7.82466 18.5352V19.6902Z" fill="#FFC22D"/>
<path d="M7.82466 17.281L7.53133 17.347V16.225L7.82466 16.126V17.281Z" fill="#FFC22D"/>
<path d="M7.82466 15.0154L7.53133 15.1474V14.0254L7.82466 13.8604V15.0154Z" fill="#FFC22D"/>
<path d="M10.5893 8.61308L11 8.21708L9.86332 9.18508V7.48008L11 5.83008L12.1367 7.48008V9.18508L13.1193 10.0211V12.0011L15.3927 13.5301V18.1281H17.1967L17.7467 19.8001H15.4H11V10.6811V10.5821L12.3933 11.5171V10.3071L11 9.22908V8.27208L10.5893 8.61308ZM10.6407 7.75508L10.296 8.07408V8.73408L10.6407 8.43708V7.75508ZM12.2613 12.7821L11.8213 12.5401V13.9591L12.2613 14.1571V12.7821ZM12.2613 15.4661L11.8213 15.3121V16.7311L12.2613 16.8301V15.4661ZM12.2613 18.3261L11.8213 18.2821V19.6901H12.2613V18.3261ZM14.1753 19.6901H14.4687V18.5681L14.1753 18.5351V19.6901ZM14.1753 17.2811L14.4687 17.3471V16.2251L14.1753 16.1261V17.2811ZM14.1753 15.0151L14.4687 15.1471V14.0251L14.1753 13.8601V15.0151ZM13.09 19.6901H13.4493V18.4581L13.09 18.4141V19.6901ZM13.09 17.0281L13.4493 17.1161V15.8841L13.09 15.7631V17.0281ZM13.09 14.5311L13.4493 14.6961V13.4641L13.09 13.2661V14.5311ZM11.3007 8.44808L11.6453 8.74508V8.08508L11.3007 7.76608V8.44808Z" fill="#FFC22D"/>
<path d="M10.5893 8.61352L9.86333 9.22952V9.18552L11 8.22852L10.5893 8.61352Z" fill="#FFC22D"/>
<path d="M19.1033 19.7451L2.93333 19.8001L11 31.9001L19.1033 19.7451Z" fill="#FFC22D"/>
<path d="M40.7727 14C40.3409 11.6136 38.4318 10.2045 36.0909 10.2045C33.1136 10.2045 30.9545 12.5 30.9545 16.1818C30.9545 19.8636 33.1136 22.1591 36.0909 22.1591C38.4318 22.1591 40.3409 20.75 40.7727 18.3636H39.3636C39.0227 19.9773 37.6364 20.8409 36.0909 20.8409C33.9773 20.8409 32.3182 19.2045 32.3182 16.1818C32.3182 13.1591 33.9773 11.5227 36.0909 11.5227C37.6364 11.5227 39.0227 12.3864 39.3636 14H40.7727ZM42.4134 11.6136H46.0724V22H47.4815V11.6136H51.1406V10.3636H42.4134V11.6136ZM53.3153 22H54.7244V17.75H57.2699C59.9801 17.75 61.2017 16.1023 61.2017 14.0455C61.2017 11.9886 59.9801 10.3636 57.2472 10.3636H53.3153V22ZM54.7244 16.5V11.6136H57.2017C59.0938 11.6136 59.8153 12.6477 59.8153 14.0455C59.8153 15.4432 59.0938 16.5 57.2244 16.5H54.7244ZM73.2898 16.1818C73.2898 12.5 71.1307 10.2045 68.1534 10.2045C65.1761 10.2045 63.017 12.5 63.017 16.1818C63.017 19.8636 65.1761 22.1591 68.1534 22.1591C71.1307 22.1591 73.2898 19.8636 73.2898 16.1818ZM71.9261 16.1818C71.9261 19.2045 70.267 20.8409 68.1534 20.8409C66.0398 20.8409 64.3807 19.2045 64.3807 16.1818C64.3807 13.1591 66.0398 11.5227 68.1534 11.5227C70.267 11.5227 71.9261 13.1591 71.9261 16.1818ZM75.6591 10.3636V22H77.0227L83.3636 12.8636H83.4773V22H84.8864V10.3636H83.5227L77.1591 19.5227H77.0455V10.3636H75.6591ZM81.3864 7.45455C81.3864 8.04545 81.0682 8.56818 80.2727 8.56818C79.4773 8.56818 79.1818 8.04545 79.1818 7.45455H77.9318C77.9318 8.68182 78.8409 9.54545 80.2727 9.54545C81.7273 9.54545 82.6364 8.68182 82.6364 7.45455H81.3864ZM94.5469 22H96.2287L91.3651 15.4773L96.0696 10.3636H94.3878L89.7287 15.4091H89.1151V10.3636H87.706V22H89.1151V16.6591H90.5469L94.5469 22ZM107.321 16.1818C107.321 12.5 105.162 10.2045 102.185 10.2045C99.2074 10.2045 97.0483 12.5 97.0483 16.1818C97.0483 19.8636 99.2074 22.1591 102.185 22.1591C105.162 22.1591 107.321 19.8636 107.321 16.1818ZM105.957 16.1818C105.957 19.2045 104.298 20.8409 102.185 20.8409C100.071 20.8409 98.4119 19.2045 98.4119 16.1818C98.4119 13.1591 100.071 11.5227 102.185 11.5227C104.298 11.5227 105.957 13.1591 105.957 16.1818ZM109.69 22H111.099V16.7955H117.304V22H118.713V10.3636H117.304V15.5455H111.099V10.3636H109.69V22ZM120.898 11.6136H124.557V22H125.966V11.6136H129.625V10.3636H120.898V11.6136ZM131.8 22H133.209V17.75H135.754C138.464 17.75 139.686 16.1023 139.686 14.0455C139.686 11.9886 138.464 10.3636 135.732 10.3636H131.8V22ZM133.209 16.5V11.6136H135.686C137.578 11.6136 138.3 12.6477 138.3 14.0455C138.3 15.4432 137.578 16.5 135.709 16.5H133.209ZM151.774 16.1818C151.774 12.5 149.615 10.2045 146.638 10.2045C143.661 10.2045 141.501 12.5 141.501 16.1818C141.501 19.8636 143.661 22.1591 146.638 22.1591C149.615 22.1591 151.774 19.8636 151.774 16.1818ZM150.411 16.1818C150.411 19.2045 148.751 20.8409 146.638 20.8409C144.524 20.8409 142.865 19.2045 142.865 16.1818C142.865 13.1591 144.524 11.5227 146.638 11.5227C148.751 11.5227 150.411 13.1591 150.411 16.1818ZM153.143 22H153.575C156.143 22 156.661 19.9091 156.803 16.25L156.984 11.6136H161.325V22H162.734V10.3636H155.643L155.439 15.9773C155.314 19.4091 154.939 20.7045 153.484 20.7045H153.143V22ZM166.959 15.25V10.3636H165.55V22H169.913C172.413 22 173.777 20.5909 173.777 18.5682C173.777 16.5455 172.413 15.25 169.913 15.25H166.959ZM166.959 16.5H169.913C171.504 16.5 172.391 17.4318 172.391 18.5455C172.391 19.6818 171.504 20.7727 169.913 20.7727H166.959V16.5Z" fill="#212B31"/>
</svg>
